<?xml version="1.0" encoding="UTF-8"?>
<svg id="Camada_1" data-name="Camada 1" xmlns="http://www.w3.org/2000/svg" viewBox="0 0 184.96 57.78">
  <defs>
    <style>
      .cls-1 {
        fill: #1c3661;
      }
    </style>
  </defs>
  <path class="cls-1" d="M10.4,9.61h-5.81c-.53,0-1.01.3-1.26.76-.25.46-.22,1.03.07,1.47l23.17,34.8c.47.7,1.25,1.12,2.09,1.12s1.62-.42,2.09-1.12L53.88,11.83c.29-.44.32-1,.07-1.47h0c-.25-.47-.73-.76-1.26-.76h-5.6c-.49,0-.94.24-1.2.65l-15.98,24.64c-.26.4-.67.62-1.14.62s-.89-.23-1.14-.62L11.6,10.26c-.26-.41-.71-.65-1.2-.65Z"/>
  <rect class="cls-1" width="184.53" height="4.9" rx="2.27" ry="2.27"/>
  <rect class="cls-1" x=".25" y="52.88" width="78.64" height="4.9" rx="2.27" ry="2.27"/>
  <rect class="cls-1" x="85.76" y="52.88" width="46.16" height="4.9" rx="2.27" ry="2.27"/>
  <rect class="cls-1" x="138.8" y="52.88" width="46.16" height="4.9" rx="2.27" ry="2.27"/>
  <path class="cls-1" d="M97.04,9.55c-.97,0-1.75.76-1.75,1.68v34.96c0,.93.79,1.68,1.75,1.68h4.82c.97,0,1.75-.76,1.75-1.68V11.24c0-.93-.79-1.68-1.75-1.68h-4.82Z"/>
  <path class="cls-1" d="M140.23,46.86c.2-.59,0-1.23-.5-1.62h0l-16.81-12.88,16.05-11.72c.52-.38.73-1.02.54-1.62-.2-.63-.78-1.04-1.46-1.04h-5.33c-.34,0-.68.11-.95.31l-14.03,10.62V11.03c0-.81-.69-1.48-1.54-1.48h-5.14c-.85,0-1.53.66-1.53,1.48v35.37c0,.81.69,1.48,1.53,1.48h5.14c.85,0,1.53-.66,1.53-1.48v-9.69l14.15,10.85c.27.21.61.32.95.32h5.95c.68,0,1.25-.4,1.46-1.02Z"/>
  <path class="cls-1" d="M167.55,18.02h-10.82c-11.58,0-15.3,3.18-15.3,13.07v4.11c0,9.85,3.72,13.01,15.3,13.01h10.82c11.63,0,15.36-3.16,15.36-13.01v-4.06c0-9.93-3.73-13.12-15.36-13.12ZM174.48,34.97c0,4.87-1.17,6.49-8.12,6.49h-8.43c-6.4,0-8.06-1.34-8.06-6.49v-3.61c0-5.22,1.58-6.5,8.06-6.5h8.43c6.95,0,8.12,1.62,8.12,6.5v3.61Z"/>
  <path class="cls-1" d="M59.4,34.47h31.15c.84,0,1.52-.66,1.52-1.47v-2.09c0-9.77-3.7-12.9-15.22-12.9h0s-10.82,0-10.82,0c-11.47,0-15.16,3.12-15.16,12.85v4.09c0,9.68,3.68,12.79,15.16,12.79h10.21c.9,0,1.63-.7,1.63-1.57v-3.29c0-.86-.73-1.57-1.63-1.57h-9.02c-6.5,0-8.19-1.34-8.21-6.53,0-.1.05-.17.09-.21.07-.07.18-.11.28-.11ZM67.23,24.55h8.43c5.34,0,7.79.7,8.19,4.86h0c0,.1-.04.17-.08.22-.07.08-.18.12-.29.12h-24.01c-.11,0-.22-.04-.29-.12-.04-.04-.09-.12-.08-.22.41-4.13,2.94-4.85,8.13-4.85Z"/>
  <path class="cls-1" d="M28.6,32.05h0c.81,0,1.56-.41,2-1.09l12.49-19.27c.27-.42.29-.95.05-1.39h0c-.24-.44-.7-.71-1.19-.71h-10.24c-.46,0-.89.22-1.14.61l-4.48,6.95c-.09.14-.23.16-.29.15-.06,0-.19-.02-.28-.15l-4.55-6.96c-.25-.39-.68-.61-1.14-.61h-4.53c-.5,0-.96.27-1.19.71-.24.44-.22.97.05,1.39l12.42,19.27c.44.68,1.19,1.09,2,1.1ZM18.06,12.04h.96c.14,0,.27.07.34.19l5.24,8.02c.57.87,1.85.87,2.42,0l5.17-8.01c.08-.12.21-.19.35-.19h6.65s0,0,0,0c.33,0,.52.36.34.64l-9.72,15c-.57.88-1.85.88-2.42,0l-9.67-15c-.17-.27.02-.63.35-.63Z"/>
</svg>